<svg xmlns="http://www.w3.org/2000/svg" viewBox="0 0 109.84 109.84"><circle cx="54.92" cy="54.92" r="54.92" style="fill:#22303f"/><path d="M41.27 50.27c0-7.03 5.7-12.73 12.73-12.73s12.73 5.7 12.73 12.73S61.03 63 54 63s-12.73-5.7-12.73-12.73Zm16.36 19.67c9.31-1.7 16.36-9.86 16.36-19.67 0-11.05-8.95-20-20-20s-20 8.95-20 20c0 9.81 7.06 17.97 16.36 19.67v3.97h-3.64c-2.01 0-3.64 1.62-3.64 3.64s1.63 3.64 3.64 3.64h3.64v3.64a3.64 3.64 0 0 0 7.28 0v-3.64h3.64c2.01 0 3.64-1.62 3.64-3.64s-1.62-3.64-3.64-3.64h-3.64v-3.97Z" style="fill:#fff"/></svg>