<svg xmlns="http://www.w3.org/2000/svg" viewBox="0 0 109.84 109.84"><circle cx="54.92" cy="54.92" r="54.92" style="fill:#22303f"/><path d="M56.16 18.88a3.13 3.13 0 0 0-4.03 0L17.92 47.91c-1.31 1.11-1.46 3.07-.36 4.38s3.07 1.46 4.38.36l3.19-2.7v24.17c0 5.73 4.64 10.37 10.37 10.37h37.33c5.73 0 10.37-4.64 10.37-10.37V49.95l3.18 2.7c1.31 1.11 3.28.95 4.38-.36s.95-3.28-.36-4.38L56.19 18.88ZM31.34 74.13V44.68l22.81-19.35 22.81 19.35v29.45c0 2.29-1.85 4.15-4.15 4.15h-6.22v-19.7c0-2.86-2.32-5.18-5.18-5.18H46.89c-2.86 0-5.18 2.32-5.18 5.18v19.7h-6.22c-2.29 0-4.15-1.85-4.15-4.15Zm16.59 4.15V59.62h12.44v18.66H47.93Z" style="fill:#fff"/></svg>