<svg xmlns="http://www.w3.org/2000/svg" viewBox="0 0 109.84 109.84"><circle cx="54.92" cy="54.92" r="54.92" style="fill:#22303f"/><path d="M67.22 25.47a2.844 2.844 0 0 1 2.64-1.76h13.3c1.58 0 2.85 1.27 2.85 2.85v13.3a2.85 2.85 0 0 1-4.87 2.02l-3.96-3.96-6.24 6.24c2.31 3.37 3.68 7.44 3.68 11.85 0 11.54-9.35 20.89-20.89 20.89s-20.89-9.35-20.89-20.89 9.35-20.89 20.89-20.89c4.39 0 8.48 1.35 11.85 3.68l6.24-6.24-3.96-3.96a2.85 2.85 0 0 1-.62-3.11ZM53.71 69.3c7.34 0 13.3-5.95 13.3-13.3s-5.95-13.3-13.3-13.3-13.3 5.95-13.3 13.3 5.95 13.3 13.3 13.3Z" style="fill:#fff"/></svg>